<svg width="78" height="10" viewBox="0 0 78 10" fill="none" xmlns="http://www.w3.org/2000/svg">
<path d="M5.03906 5.38281C5.03906 5.21094 4.99609 5.04102 4.91016 4.87305C4.82422 4.70508 4.6582 4.55078 4.41211 4.41016C4.16992 4.26953 3.8125 4.15039 3.33984 4.05273C2.98828 3.97461 2.67383 3.88672 2.39648 3.78906C2.12305 3.69141 1.89258 3.57422 1.70508 3.4375C1.51758 3.30078 1.375 3.13672 1.27734 2.94531C1.17969 2.75391 1.13086 2.52734 1.13086 2.26562C1.13086 2.03125 1.18164 1.81055 1.2832 1.60352C1.38867 1.39258 1.53711 1.20898 1.72852 1.05273C1.92383 0.892578 2.1582 0.767578 2.43164 0.677734C2.70898 0.587891 3.01953 0.542969 3.36328 0.542969C3.85156 0.542969 4.26953 0.626953 4.61719 0.794922C4.96875 0.958984 5.23633 1.18359 5.41992 1.46875C5.60742 1.75391 5.70117 2.07617 5.70117 2.43555H5.00391C5.00391 2.2168 4.93945 2.00977 4.81055 1.81445C4.68555 1.61914 4.5 1.45898 4.25391 1.33398C4.01172 1.20898 3.71484 1.14648 3.36328 1.14648C3 1.14648 2.70508 1.20117 2.47852 1.31055C2.25195 1.41992 2.08594 1.55859 1.98047 1.72656C1.87891 1.89453 1.82812 2.06836 1.82812 2.24805C1.82812 2.38867 1.84961 2.51758 1.89258 2.63477C1.93945 2.74805 2.02148 2.85352 2.13867 2.95117C2.25977 3.04883 2.43164 3.14062 2.6543 3.22656C2.87695 3.3125 3.16602 3.39648 3.52148 3.47852C4.0332 3.5918 4.45117 3.73047 4.77539 3.89453C5.10352 4.05469 5.3457 4.25391 5.50195 4.49219C5.6582 4.72656 5.73633 5.01172 5.73633 5.34766C5.73633 5.60938 5.68164 5.84961 5.57227 6.06836C5.46289 6.2832 5.30469 6.46875 5.09766 6.625C4.89453 6.78125 4.64844 6.90234 4.35938 6.98828C4.07422 7.07422 3.75391 7.11719 3.39844 7.11719C2.86328 7.11719 2.41016 7.0293 2.03906 6.85352C1.67188 6.67383 1.39258 6.43945 1.20117 6.15039C1.01367 5.85742 0.919922 5.54688 0.919922 5.21875H1.61719C1.64062 5.54688 1.74414 5.80664 1.92773 5.99805C2.11133 6.18555 2.33594 6.31836 2.60156 6.39648C2.87109 6.47461 3.13672 6.51367 3.39844 6.51367C3.75781 6.51367 4.05859 6.46094 4.30078 6.35547C4.54297 6.25 4.72656 6.11133 4.85156 5.93945C4.97656 5.76758 5.03906 5.58203 5.03906 5.38281ZM8.01562 1.87891V9.4375H7.3125V0.660156H7.96875L8.01562 1.87891ZM12.4219 3.77148V3.89453C12.4219 4.36719 12.3672 4.80078 12.2578 5.19531C12.1484 5.58984 11.9902 5.93164 11.7832 6.2207C11.5801 6.50586 11.3281 6.72656 11.0273 6.88281C10.7266 7.03906 10.3848 7.11719 10.002 7.11719C9.62305 7.11719 9.28516 7.05859 8.98828 6.94141C8.69141 6.82422 8.43555 6.6582 8.2207 6.44336C8.00977 6.22461 7.83984 5.9707 7.71094 5.68164C7.58594 5.38867 7.49805 5.06836 7.44727 4.7207V3.09766C7.50586 2.71484 7.60156 2.36719 7.73438 2.05469C7.86719 1.74219 8.03711 1.47266 8.24414 1.24609C8.45508 1.01953 8.70508 0.845703 8.99414 0.724609C9.2832 0.603516 9.61328 0.542969 9.98438 0.542969C10.3711 0.542969 10.7148 0.619141 11.0156 0.771484C11.3203 0.919922 11.5762 1.13672 11.7832 1.42188C11.9941 1.70312 12.1523 2.04297 12.2578 2.44141C12.3672 2.83594 12.4219 3.2793 12.4219 3.77148ZM11.7188 3.89453V3.77148C11.7188 3.40039 11.6797 3.05664 11.6016 2.74023C11.5273 2.42383 11.4121 2.14844 11.2559 1.91406C11.1035 1.67578 10.9082 1.49023 10.6699 1.35742C10.4355 1.22461 10.1562 1.1582 9.83203 1.1582C9.49609 1.1582 9.20898 1.21484 8.9707 1.32812C8.73633 1.4375 8.54102 1.58398 8.38477 1.76758C8.22852 1.94727 8.10547 2.14453 8.01562 2.35938C7.92578 2.57422 7.85938 2.78516 7.81641 2.99219V4.86133C7.89062 5.1582 8.00977 5.43359 8.17383 5.6875C8.33789 5.9375 8.55664 6.13867 8.83008 6.29102C9.10742 6.43945 9.44531 6.51367 9.84375 6.51367C10.1641 6.51367 10.4414 6.44727 10.6758 6.31445C10.9102 6.18164 11.1035 5.99609 11.2559 5.75781C11.4121 5.51953 11.5273 5.24219 11.6016 4.92578C11.6797 4.60938 11.7188 4.26562 11.7188 3.89453ZM13.5938 3.92969V3.73633C13.5938 3.27539 13.6602 2.84961 13.793 2.45898C13.9258 2.06836 14.1152 1.73047 14.3613 1.44531C14.6113 1.16016 14.9102 0.939453 15.2578 0.783203C15.6055 0.623047 15.9922 0.542969 16.418 0.542969C16.8477 0.542969 17.2363 0.623047 17.584 0.783203C17.9316 0.939453 18.2305 1.16016 18.4805 1.44531C18.7305 1.73047 18.9219 2.06836 19.0547 2.45898C19.1875 2.84961 19.2539 3.27539 19.2539 3.73633V3.92969C19.2539 4.39062 19.1875 4.81641 19.0547 5.20703C18.9219 5.59375 18.7305 5.92969 18.4805 6.21484C18.2344 6.5 17.9375 6.72266 17.5898 6.88281C17.2422 7.03906 16.8555 7.11719 16.4297 7.11719C16 7.11719 15.6113 7.03906 15.2637 6.88281C14.916 6.72266 14.6172 6.5 14.3672 6.21484C14.1172 5.92969 13.9258 5.59375 13.793 5.20703C13.6602 4.81641 13.5938 4.39062 13.5938 3.92969ZM14.291 3.73633V3.92969C14.291 4.27734 14.3379 4.60742 14.4316 4.91992C14.5254 5.22852 14.6621 5.50391 14.8418 5.74609C15.0215 5.98438 15.2441 6.17188 15.5098 6.30859C15.7754 6.44531 16.082 6.51367 16.4297 6.51367C16.7734 6.51367 17.0762 6.44531 17.3379 6.30859C17.6035 6.17188 17.8262 5.98438 18.0059 5.74609C18.1855 5.50391 18.3203 5.22852 18.4102 4.91992C18.5039 4.60742 18.5508 4.27734 18.5508 3.92969V3.73633C18.5508 3.39258 18.5039 3.06641 18.4102 2.75781C18.3203 2.44922 18.1836 2.17383 18 1.93164C17.8203 1.68945 17.5977 1.49805 17.332 1.35742C17.0664 1.2168 16.7617 1.14648 16.418 1.14648C16.0742 1.14648 15.7695 1.2168 15.5039 1.35742C15.2422 1.49805 15.0195 1.68945 14.8359 1.93164C14.6562 2.17383 14.5195 2.44922 14.4258 2.75781C14.3359 3.06641 14.291 3.39258 14.291 3.73633ZM21.3691 1.97266V7H20.666V0.660156H21.3398L21.3691 1.97266ZM21.2402 3.4375L20.9004 3.26172C20.9238 2.88672 20.9941 2.53516 21.1113 2.20703C21.2324 1.87891 21.4004 1.58984 21.6152 1.33984C21.8301 1.08984 22.0879 0.894531 22.3887 0.753906C22.6895 0.613281 23.0312 0.542969 23.4141 0.542969C23.7227 0.542969 24.002 0.585938 24.252 0.671875C24.5059 0.753906 24.7207 0.884766 24.8965 1.06445C25.0762 1.24023 25.2148 1.4707 25.3125 1.75586C25.4102 2.04102 25.459 2.38281 25.459 2.78125V7H24.7617V2.80469C24.7617 2.38281 24.6953 2.05273 24.5625 1.81445C24.4336 1.57617 24.252 1.40625 24.0176 1.30469C23.7871 1.20312 23.5195 1.15234 23.2148 1.15234C22.8555 1.15234 22.5508 1.22656 22.3008 1.375C22.0547 1.51953 21.8535 1.70898 21.6973 1.94336C21.5449 2.17383 21.4316 2.42188 21.3574 2.6875C21.2832 2.94922 21.2441 3.19922 21.2402 3.4375ZM25.4531 2.88672L24.9844 2.89844C25.0039 2.58984 25.0742 2.29492 25.1953 2.01367C25.3203 1.73242 25.4902 1.48242 25.7051 1.26367C25.9199 1.04102 26.1758 0.865234 26.4727 0.736328C26.7734 0.607422 27.1113 0.542969 27.4863 0.542969C27.8145 0.542969 28.1074 0.587891 28.3652 0.677734C28.623 0.763672 28.8398 0.902344 29.0156 1.09375C29.1953 1.28125 29.332 1.52148 29.4258 1.81445C29.5195 2.10742 29.5664 2.45898 29.5664 2.86914V7H28.8633V2.86328C28.8633 2.41406 28.7969 2.06641 28.6641 1.82031C28.5352 1.57031 28.3555 1.39648 28.125 1.29883C27.8945 1.20117 27.625 1.15234 27.3164 1.15234C27.0117 1.15625 26.7441 1.21289 26.5137 1.32227C26.2832 1.42773 26.0898 1.56836 25.9336 1.74414C25.7812 1.91602 25.6641 2.10156 25.582 2.30078C25.5039 2.5 25.4609 2.69531 25.4531 2.88672ZM33.7969 7.11719C33.3828 7.11719 33.002 7.04102 32.6543 6.88867C32.3105 6.73633 32.0098 6.52148 31.752 6.24414C31.498 5.9668 31.3008 5.63867 31.1602 5.25977C31.0234 4.87695 30.9551 4.45898 30.9551 4.00586V3.75391C30.9551 3.26562 31.0273 2.82422 31.1719 2.42969C31.3164 2.03516 31.5156 1.69727 31.7695 1.41602C32.0234 1.13477 32.3125 0.919922 32.6367 0.771484C32.9648 0.619141 33.3086 0.542969 33.668 0.542969C34.0703 0.542969 34.4277 0.615234 34.7402 0.759766C35.0527 0.900391 35.3145 1.10156 35.5254 1.36328C35.7402 1.62109 35.9023 1.92773 36.0117 2.2832C36.1211 2.63477 36.1758 3.02344 36.1758 3.44922V3.87695H31.377V3.2793H35.4785V3.19727C35.4707 2.8418 35.3984 2.50977 35.2617 2.20117C35.1289 1.88867 34.9297 1.63477 34.6641 1.43945C34.3984 1.24414 34.0664 1.14648 33.668 1.14648C33.3711 1.14648 33.0977 1.20898 32.8477 1.33398C32.6016 1.45898 32.3887 1.63867 32.209 1.87305C32.0332 2.10352 31.8965 2.37891 31.7988 2.69922C31.7051 3.01562 31.6582 3.36719 31.6582 3.75391V4.00586C31.6582 4.35742 31.709 4.68555 31.8105 4.99023C31.916 5.29102 32.0645 5.55664 32.2559 5.78711C32.4512 6.01758 32.6816 6.19727 32.9473 6.32617C33.2129 6.45508 33.5059 6.51953 33.8262 6.51953C34.2012 6.51953 34.5332 6.45117 34.8223 6.31445C35.1113 6.17383 35.3711 5.95312 35.6016 5.65234L36.041 5.99219C35.9043 6.19531 35.7324 6.38281 35.5254 6.55469C35.3223 6.72656 35.0781 6.86328 34.793 6.96484C34.5078 7.06641 34.1758 7.11719 33.7969 7.11719ZM38.2559 2.01367V7H37.5586V0.660156H38.2266L38.2559 2.01367ZM38.0977 3.4375L37.7871 3.26172C37.8105 2.88672 37.8867 2.53516 38.0156 2.20703C38.1445 1.87891 38.3184 1.58984 38.5371 1.33984C38.7598 1.08984 39.0195 0.894531 39.3164 0.753906C39.6172 0.613281 39.9492 0.542969 40.3125 0.542969C40.6289 0.542969 40.9121 0.585938 41.1621 0.671875C41.4121 0.757812 41.625 0.894531 41.8008 1.08203C41.9766 1.26953 42.1094 1.50977 42.1992 1.80273C42.293 2.0957 42.3398 2.45312 42.3398 2.875V7H41.6367V2.86914C41.6367 2.43164 41.5762 2.08984 41.4551 1.84375C41.334 1.59375 41.1621 1.41602 40.9395 1.31055C40.7168 1.20508 40.4531 1.15234 40.1484 1.15234C39.8125 1.15234 39.5176 1.22656 39.2637 1.375C39.0137 1.51953 38.8027 1.70898 38.6309 1.94336C38.4629 2.17383 38.334 2.42188 38.2441 2.6875C38.1543 2.94922 38.1055 3.19922 38.0977 3.4375ZM44.0918 6.57227C44.0918 6.43555 44.1348 6.32031 44.2207 6.22656C44.3105 6.12891 44.4316 6.08008 44.584 6.08008C44.7402 6.08008 44.8633 6.12891 44.9531 6.22656C45.043 6.32031 45.0879 6.43555 45.0879 6.57227C45.0879 6.70508 45.043 6.81836 44.9531 6.91211C44.8633 7.00586 44.7402 7.05273 44.584 7.05273C44.4316 7.05273 44.3105 7.00586 44.2207 6.91211C44.1348 6.81836 44.0918 6.70508 44.0918 6.57227ZM50.8242 5.38281C50.8242 5.21094 50.7812 5.04102 50.6953 4.87305C50.6094 4.70508 50.4434 4.55078 50.1973 4.41016C49.9551 4.26953 49.5977 4.15039 49.125 4.05273C48.7734 3.97461 48.459 3.88672 48.1816 3.78906C47.9082 3.69141 47.6777 3.57422 47.4902 3.4375C47.3027 3.30078 47.1602 3.13672 47.0625 2.94531C46.9648 2.75391 46.916 2.52734 46.916 2.26562C46.916 2.03125 46.9668 1.81055 47.0684 1.60352C47.1738 1.39258 47.3223 1.20898 47.5137 1.05273C47.709 0.892578 47.9434 0.767578 48.2168 0.677734C48.4941 0.587891 48.8047 0.542969 49.1484 0.542969C49.6367 0.542969 50.0547 0.626953 50.4023 0.794922C50.7539 0.958984 51.0215 1.18359 51.2051 1.46875C51.3926 1.75391 51.4863 2.07617 51.4863 2.43555H50.7891C50.7891 2.2168 50.7246 2.00977 50.5957 1.81445C50.4707 1.61914 50.2852 1.45898 50.0391 1.33398C49.7969 1.20898 49.5 1.14648 49.1484 1.14648C48.7852 1.14648 48.4902 1.20117 48.2637 1.31055C48.0371 1.41992 47.8711 1.55859 47.7656 1.72656C47.6641 1.89453 47.6133 2.06836 47.6133 2.24805C47.6133 2.38867 47.6348 2.51758 47.6777 2.63477C47.7246 2.74805 47.8066 2.85352 47.9238 2.95117C48.0449 3.04883 48.2168 3.14062 48.4395 3.22656C48.6621 3.3125 48.9512 3.39648 49.3066 3.47852C49.8184 3.5918 50.2363 3.73047 50.5605 3.89453C50.8887 4.05469 51.1309 4.25391 51.2871 4.49219C51.4434 4.72656 51.5215 5.01172 51.5215 5.34766C51.5215 5.60938 51.4668 5.84961 51.3574 6.06836C51.248 6.2832 51.0898 6.46875 50.8828 6.625C50.6797 6.78125 50.4336 6.90234 50.1445 6.98828C49.8594 7.07422 49.5391 7.11719 49.1836 7.11719C48.6484 7.11719 48.1953 7.0293 47.8242 6.85352C47.457 6.67383 47.1777 6.43945 46.9863 6.15039C46.7988 5.85742 46.7051 5.54688 46.7051 5.21875H47.4023C47.4258 5.54688 47.5293 5.80664 47.7129 5.99805C47.8965 6.18555 48.1211 6.31836 48.3867 6.39648C48.6562 6.47461 48.9219 6.51367 49.1836 6.51367C49.543 6.51367 49.8438 6.46094 50.0859 6.35547C50.3281 6.25 50.5117 6.11133 50.6367 5.93945C50.7617 5.76758 50.8242 5.58203 50.8242 5.38281ZM53.8008 1.87891V9.4375H53.0977V0.660156H53.7539L53.8008 1.87891ZM58.207 3.77148V3.89453C58.207 4.36719 58.1523 4.80078 58.043 5.19531C57.9336 5.58984 57.7754 5.93164 57.5684 6.2207C57.3652 6.50586 57.1133 6.72656 56.8125 6.88281C56.5117 7.03906 56.1699 7.11719 55.7871 7.11719C55.4082 7.11719 55.0703 7.05859 54.7734 6.94141C54.4766 6.82422 54.2207 6.6582 54.0059 6.44336C53.7949 6.22461 53.625 5.9707 53.4961 5.68164C53.3711 5.38867 53.2832 5.06836 53.2324 4.7207V3.09766C53.291 2.71484 53.3867 2.36719 53.5195 2.05469C53.6523 1.74219 53.8223 1.47266 54.0293 1.24609C54.2402 1.01953 54.4902 0.845703 54.7793 0.724609C55.0684 0.603516 55.3984 0.542969 55.7695 0.542969C56.1562 0.542969 56.5 0.619141 56.8008 0.771484C57.1055 0.919922 57.3613 1.13672 57.5684 1.42188C57.7793 1.70312 57.9375 2.04297 58.043 2.44141C58.1523 2.83594 58.207 3.2793 58.207 3.77148ZM57.5039 3.89453V3.77148C57.5039 3.40039 57.4648 3.05664 57.3867 2.74023C57.3125 2.42383 57.1973 2.14844 57.041 1.91406C56.8887 1.67578 56.6934 1.49023 56.4551 1.35742C56.2207 1.22461 55.9414 1.1582 55.6172 1.1582C55.2812 1.1582 54.9941 1.21484 54.7559 1.32812C54.5215 1.4375 54.3262 1.58398 54.1699 1.76758C54.0137 1.94727 53.8906 2.14453 53.8008 2.35938C53.7109 2.57422 53.6445 2.78516 53.6016 2.99219V4.86133C53.6758 5.1582 53.7949 5.43359 53.959 5.6875C54.123 5.9375 54.3418 6.13867 54.6152 6.29102C54.8926 6.43945 55.2305 6.51367 55.6289 6.51367C55.9492 6.51367 56.2266 6.44727 56.4609 6.31445C56.6953 6.18164 56.8887 5.99609 57.041 5.75781C57.1973 5.51953 57.3125 5.24219 57.3867 4.92578C57.4648 4.60938 57.5039 4.26562 57.5039 3.89453ZM63.6211 5.86328V2.59375C63.6211 2.29297 63.5586 2.0332 63.4336 1.81445C63.3086 1.5957 63.125 1.42773 62.8828 1.31055C62.6406 1.19336 62.3418 1.13477 61.9863 1.13477C61.6582 1.13477 61.3652 1.19336 61.1074 1.31055C60.8535 1.42383 60.6523 1.57812 60.5039 1.77344C60.3594 1.96484 60.2871 2.17773 60.2871 2.41211L59.584 2.40625C59.584 2.16797 59.6426 1.9375 59.7598 1.71484C59.877 1.49219 60.043 1.29297 60.2578 1.11719C60.4727 0.941406 60.7285 0.802734 61.0254 0.701172C61.3262 0.595703 61.6562 0.542969 62.0156 0.542969C62.4688 0.542969 62.8672 0.619141 63.2109 0.771484C63.5586 0.923828 63.8301 1.15234 64.0254 1.45703C64.2207 1.76172 64.3184 2.14453 64.3184 2.60547V5.66992C64.3184 5.88867 64.334 6.11523 64.3652 6.34961C64.4004 6.58398 64.4492 6.77734 64.5117 6.92969V7H63.7676C63.7207 6.85938 63.6836 6.68359 63.6562 6.47266C63.6328 6.25781 63.6211 6.05469 63.6211 5.86328ZM63.7852 3.30859L63.7969 3.84766H62.4199C62.0605 3.84766 61.7383 3.88086 61.4531 3.94727C61.1719 4.00977 60.9336 4.10352 60.7383 4.22852C60.543 4.34961 60.3926 4.49609 60.2871 4.66797C60.1855 4.83984 60.1348 5.03516 60.1348 5.25391C60.1348 5.48047 60.1914 5.6875 60.3047 5.875C60.4219 6.0625 60.5859 6.21289 60.7969 6.32617C61.0117 6.43555 61.2656 6.49023 61.5586 6.49023C61.9492 6.49023 62.293 6.41797 62.5898 6.27344C62.8906 6.12891 63.1387 5.93945 63.334 5.70508C63.5293 5.4707 63.6602 5.21484 63.7266 4.9375L64.0312 5.3418C63.9805 5.53711 63.8867 5.73828 63.75 5.94531C63.6172 6.14844 63.4434 6.33984 63.2285 6.51953C63.0137 6.69531 62.7598 6.83984 62.4668 6.95312C62.1777 7.0625 61.8496 7.11719 61.4824 7.11719C61.0684 7.11719 60.707 7.03906 60.3984 6.88281C60.0938 6.72656 59.8555 6.51367 59.6836 6.24414C59.5156 5.9707 59.4316 5.66211 59.4316 5.31836C59.4316 5.00586 59.498 4.72656 59.6309 4.48047C59.7637 4.23047 59.9551 4.01953 60.2051 3.84766C60.459 3.67188 60.7637 3.53906 61.1191 3.44922C61.4785 3.35547 61.8809 3.30859 62.3262 3.30859H63.7852ZM68.5371 6.51367C68.834 6.51367 69.1113 6.45898 69.3691 6.34961C69.6309 6.23633 69.8457 6.07031 70.0137 5.85156C70.1855 5.62891 70.2832 5.35742 70.3066 5.03711H70.9746C70.9551 5.43945 70.832 5.79883 70.6055 6.11523C70.3828 6.42773 70.0898 6.67383 69.7266 6.85352C69.3672 7.0293 68.9707 7.11719 68.5371 7.11719C68.0957 7.11719 67.7051 7.03711 67.3652 6.87695C67.0293 6.7168 66.748 6.49414 66.5215 6.20898C66.2949 5.91992 66.123 5.58398 66.0059 5.20117C65.8926 4.81445 65.8359 4.39844 65.8359 3.95312V3.70703C65.8359 3.26172 65.8926 2.84766 66.0059 2.46484C66.123 2.07812 66.2949 1.74219 66.5215 1.45703C66.748 1.16797 67.0293 0.943359 67.3652 0.783203C67.7012 0.623047 68.0898 0.542969 68.5312 0.542969C68.9844 0.542969 69.3906 0.634766 69.75 0.818359C70.1133 1.00195 70.4023 1.26172 70.6172 1.59766C70.8359 1.93359 70.9551 2.33203 70.9746 2.79297H70.3066C70.2871 2.45312 70.1973 2.16016 70.0371 1.91406C69.877 1.66797 69.666 1.47852 69.4043 1.3457C69.1426 1.21289 68.8516 1.14648 68.5312 1.14648C68.1719 1.14648 67.8652 1.2168 67.6113 1.35742C67.3574 1.49414 67.1504 1.68359 66.9902 1.92578C66.834 2.16406 66.7188 2.4375 66.6445 2.74609C66.5703 3.05078 66.5332 3.37109 66.5332 3.70703V3.95312C66.5332 4.29297 66.5684 4.61719 66.6387 4.92578C66.7129 5.23047 66.8281 5.50195 66.9844 5.74023C67.1445 5.97852 67.3516 6.16797 67.6055 6.30859C67.8633 6.44531 68.1738 6.51367 68.5371 6.51367ZM74.8359 7.11719C74.4219 7.11719 74.041 7.04102 73.6934 6.88867C73.3496 6.73633 73.0488 6.52148 72.791 6.24414C72.5371 5.9668 72.3398 5.63867 72.1992 5.25977C72.0625 4.87695 71.9941 4.45898 71.9941 4.00586V3.75391C71.9941 3.26562 72.0664 2.82422 72.2109 2.42969C72.3555 2.03516 72.5547 1.69727 72.8086 1.41602C73.0625 1.13477 73.3516 0.919922 73.6758 0.771484C74.0039 0.619141 74.3477 0.542969 74.707 0.542969C75.1094 0.542969 75.4668 0.615234 75.7793 0.759766C76.0918 0.900391 76.3535 1.10156 76.5645 1.36328C76.7793 1.62109 76.9414 1.92773 77.0508 2.2832C77.1602 2.63477 77.2148 3.02344 77.2148 3.44922V3.87695H72.416V3.2793H76.5176V3.19727C76.5098 2.8418 76.4375 2.50977 76.3008 2.20117C76.168 1.88867 75.9688 1.63477 75.7031 1.43945C75.4375 1.24414 75.1055 1.14648 74.707 1.14648C74.4102 1.14648 74.1367 1.20898 73.8867 1.33398C73.6406 1.45898 73.4277 1.63867 73.248 1.87305C73.0723 2.10352 72.9355 2.37891 72.8379 2.69922C72.7441 3.01562 72.6973 3.36719 72.6973 3.75391V4.00586C72.6973 4.35742 72.748 4.68555 72.8496 4.99023C72.9551 5.29102 73.1035 5.55664 73.2949 5.78711C73.4902 6.01758 73.7207 6.19727 73.9863 6.32617C74.252 6.45508 74.5449 6.51953 74.8652 6.51953C75.2402 6.51953 75.5723 6.45117 75.8613 6.31445C76.1504 6.17383 76.4102 5.95312 76.6406 5.65234L77.0801 5.99219C76.9434 6.19531 76.7715 6.38281 76.5645 6.55469C76.3613 6.72656 76.1172 6.86328 75.832 6.96484C75.5469 7.06641 75.2148 7.11719 74.8359 7.11719Z" fill="url(#paint0_linear_100_186)"/>
<defs>
<linearGradient id="paint0_linear_100_186" x1="0" y1="-4" x2="78" y2="-4" gradientUnits="userSpaceOnUse">
<stop stop-color="#87A8F3"/>
<stop offset="1" stop-color="#EC7FD3"/>
</linearGradient>
</defs>
</svg>
