<svg width="85" height="50" viewBox="0 0 85 50" fill="none" xmlns="http://www.w3.org/2000/svg">
<path d="M72.0659 19.0932C72.0659 18.9668 72.1079 18.8614 72.192 18.7771C72.2821 18.6868 72.3902 18.6416 72.5163 18.6416C72.6424 18.6416 72.7505 18.6838 72.8406 18.7681L83.7766 29.7417V19.0932C83.7766 18.9668 83.8186 18.8614 83.9027 18.7771C83.9928 18.6868 84.1009 18.6416 84.227 18.6416C84.3531 18.6416 84.4582 18.6868 84.5423 18.7771C84.6324 18.8614 84.6774 18.9668 84.6774 19.0932V30.8345C84.6774 30.961 84.6324 31.0694 84.5423 31.1597C84.4582 31.244 84.3531 31.2861 84.227 31.2861C84.1009 31.2861 83.9958 31.241 83.9117 31.1507C83.8937 31.1386 83.8757 31.1236 83.8577 31.1055L72.9667 20.177V30.8345C72.9667 30.961 72.9217 31.0694 72.8316 31.1597C72.7475 31.244 72.6424 31.2861 72.5163 31.2861C72.3902 31.2861 72.2821 31.244 72.192 31.1597C72.1079 31.0694 72.0659 30.961 72.0659 30.8345V19.0932Z" fill="url(#paint0_linear_100_143)"/>
<path d="M58.1031 18.6416H69.8138C69.9399 18.6416 70.045 18.6868 70.1291 18.7771C70.2192 18.8614 70.2642 18.9668 70.2642 19.0932C70.2642 19.2197 70.2192 19.328 70.1291 19.4184C70.045 19.5027 69.9399 19.5448 69.8138 19.5448H58.5535V24.5123H69.8138C69.9399 24.5123 70.045 24.5575 70.1291 24.6478C70.2192 24.7321 70.2642 24.8374 70.2642 24.9639C70.2642 25.0903 70.2192 25.1987 70.1291 25.289C70.045 25.3733 69.9399 25.4155 69.8138 25.4155H58.5535V30.383H69.8138C69.9399 30.383 70.045 30.4281 70.1291 30.5184C70.2192 30.6027 70.2642 30.7081 70.2642 30.8345C70.2642 30.961 70.2192 31.0694 70.1291 31.1597C70.045 31.244 69.9399 31.2861 69.8138 31.2861H58.1031C57.977 31.2861 57.8689 31.244 57.7788 31.1597C57.6947 31.0694 57.6527 30.961 57.6527 30.8345V19.0932C57.6527 18.9668 57.6947 18.8614 57.7788 18.7771C57.8689 18.6868 57.977 18.6416 58.1031 18.6416Z" fill="url(#paint1_linear_100_143)"/>
<path d="M43.2395 19.0932C43.2395 18.9668 43.2816 18.8614 43.3656 18.7771C43.4557 18.6868 43.5638 18.6416 43.6899 18.6416C43.8161 18.6416 43.9242 18.6838 44.0142 18.7681L49.5543 24.3136L55.0313 18.8223C55.0493 18.8042 55.0673 18.7861 55.0854 18.7681C55.1694 18.6838 55.2745 18.6416 55.4006 18.6416C55.5268 18.6416 55.6319 18.6868 55.7159 18.7771C55.806 18.8614 55.8511 18.9668 55.8511 19.0932V30.8345C55.8511 30.961 55.806 31.0694 55.7159 31.1597C55.6319 31.244 55.5268 31.2861 55.4006 31.2861C55.2745 31.2861 55.1664 31.244 55.0763 31.1597C54.9923 31.0694 54.9502 30.961 54.9502 30.8345V20.1861L49.8696 25.28L49.8155 25.3342C49.7375 25.3884 49.6474 25.4155 49.5453 25.4155C49.4192 25.4155 49.3141 25.3703 49.23 25.28C49.206 25.2619 49.188 25.2439 49.176 25.2258L44.1403 20.177V30.8345C44.1403 30.961 44.0953 31.0694 44.0052 31.1597C43.9211 31.244 43.8161 31.2861 43.6899 31.2861C43.5638 31.2861 43.4557 31.244 43.3656 31.1597C43.2816 31.0694 43.2395 30.961 43.2395 30.8345V19.0932Z" fill="url(#paint2_linear_100_143)"/>
<path d="M35.1321 18.6416C36.8737 18.6416 39.3059 18.7079 40.5371 19.9422C41.7682 21.1765 41.4379 23.2177 41.4379 24.9639C41.4379 26.71 41.582 29.0462 40.5371 30.383C39.3059 31.6173 36.8737 31.2861 35.1321 31.2861C33.3905 31.2861 31.2826 31.3644 30.0515 30.1301C28.8204 28.8957 28.8264 26.71 28.8264 24.9639C28.8264 23.2177 28.8204 21.1765 30.0515 19.9422C31.2826 18.7079 33.3905 18.6416 35.1321 18.6416ZM35.1321 19.5448C33.6368 19.5448 31.73 19.4334 30.673 20.4931C29.6221 21.5469 29.7272 23.4646 29.7272 24.9639C29.7272 26.4632 29.6221 28.3749 30.673 29.4346C31.73 30.4883 33.6368 30.383 35.1321 30.383C36.6275 30.383 38.8015 30.4883 39.8524 29.4346C40.5371 28.7482 40.5371 26.4632 40.5371 24.9639C40.5371 23.4646 40.9094 21.5469 39.8524 20.4931C38.8015 19.4334 36.6275 19.5448 35.1321 19.5448Z" fill="url(#paint3_linear_100_143)"/>
<path d="M15.314 25.4155V30.8345C15.314 30.961 15.269 31.0694 15.1789 31.1597C15.0948 31.244 14.9897 31.2861 14.8636 31.2861C14.7375 31.2861 14.6294 31.244 14.5393 31.1597C14.4552 31.0694 14.4132 30.961 14.4132 30.8345V19.0932C14.4132 18.9668 14.4552 18.8614 14.5393 18.7771C14.6294 18.6868 14.7375 18.6416 14.8636 18.6416H23.6466C24.5775 18.6416 25.3732 18.9728 26.0338 19.6351C26.6944 20.2975 27.0247 21.0953 27.0247 22.0286C27.0247 22.9618 26.6944 23.7596 26.0338 24.422C25.3732 25.0843 24.5775 25.4155 23.6466 25.4155H15.314ZM23.6466 24.5123C24.3312 24.5123 24.9138 24.2714 25.3942 23.7898C25.8807 23.302 26.1239 22.715 26.1239 22.0286C26.1239 21.3421 25.8807 20.7581 25.3942 20.2764C24.9138 19.7887 24.3312 19.5448 23.6466 19.5448H15.314V24.5123H23.6466Z" fill="url(#paint4_linear_100_143)"/>
<path d="M12.1611 18.7139C12.2872 18.7139 12.3923 18.759 12.4764 18.8493C12.5665 18.9336 12.6115 19.039 12.6115 19.1655C12.6115 19.2919 12.5665 19.4003 12.4764 19.4906C12.3923 19.5749 12.2872 19.617 12.1611 19.617H3.37809C2.69346 19.617 2.10793 19.8609 1.62148 20.3486C1.14104 20.8303 0.900824 21.4144 0.900824 22.1008C0.900824 22.7872 1.14104 23.3743 1.62148 23.862C2.10793 24.3437 2.69346 24.5845 3.37809 24.5845H4.25189C4.25189 24.5845 4.61222 24.6912 4.61222 25.0722C4.61222 25.4533 4.25189 25.4877 4.25189 25.4877H8.07138C8.07138 25.4877 7.71105 25.4877 7.71105 25.0722C7.71105 24.6568 8.07138 24.5845 8.07138 24.5845H9.23344C10.1643 24.5845 10.96 24.9157 11.6206 25.578C12.2812 26.2404 12.6115 27.0382 12.6115 27.9715C12.6115 28.9047 12.2812 29.7025 11.6206 30.3649C10.96 31.0272 10.1643 31.3584 9.23344 31.3584H0.450412C0.324296 31.3584 0.216198 31.3162 0.126115 31.2319C0.0420384 31.1416 0 31.0332 0 30.9068C0 30.7803 0.0420384 30.675 0.126115 30.5907C0.216198 30.5004 0.324296 30.4552 0.450412 30.4552H9.23344C9.91807 30.4552 10.5006 30.2143 10.981 29.7327C11.4675 29.2449 11.7107 28.6579 11.7107 27.9715C11.7107 27.285 11.4675 26.701 10.981 26.2193C10.5006 25.7316 9.91807 25.4877 9.23344 25.4877H3.37809C2.44724 25.4877 1.65151 25.1565 0.990906 24.4942C0.330302 23.8319 0 23.0341 0 22.1008C0 21.1675 0.330302 20.3697 0.990906 19.7074C1.65151 19.045 2.44724 18.7139 3.37809 18.7139H12.1611Z" fill="url(#paint5_linear_100_143)"/>
<defs>
<linearGradient id="paint0_linear_100_143" x1="78.3717" y1="18.6416" x2="78.3717" y2="31.2861" gradientUnits="userSpaceOnUse">
<stop stop-color="#87A8F3"/>
<stop offset="1" stop-color="#EC7FD3"/>
</linearGradient>
<linearGradient id="paint1_linear_100_143" x1="63.9585" y1="18.6416" x2="63.9585" y2="31.2861" gradientUnits="userSpaceOnUse">
<stop stop-color="#87A8F3"/>
<stop offset="1" stop-color="#EC7FD3"/>
</linearGradient>
<linearGradient id="paint2_linear_100_143" x1="49.5453" y1="18.6416" x2="49.5453" y2="31.2861" gradientUnits="userSpaceOnUse">
<stop stop-color="#87A8F3"/>
<stop offset="1" stop-color="#EC7FD3"/>
</linearGradient>
<linearGradient id="paint3_linear_100_143" x1="35.1523" y1="18.6416" x2="35.1523" y2="31.3265" gradientUnits="userSpaceOnUse">
<stop stop-color="#87A8F3"/>
<stop offset="1" stop-color="#EC7FD3"/>
</linearGradient>
<linearGradient id="paint4_linear_100_143" x1="20.7189" y1="18.6416" x2="20.7189" y2="31.2861" gradientUnits="userSpaceOnUse">
<stop stop-color="#87A8F3"/>
<stop offset="1" stop-color="#EC7FD3"/>
</linearGradient>
<linearGradient id="paint5_linear_100_143" x1="6.30576" y1="18.7139" x2="6.30576" y2="31.3584" gradientUnits="userSpaceOnUse">
<stop stop-color="#87A8F3"/>
<stop offset="1" stop-color="#EC7FD3"/>
</linearGradient>
</defs>
</svg>
