<svg width="50" height="50" viewBox="0 0 50 50" fill="none" xmlns="http://www.w3.org/2000/svg">
<path fill-rule="evenodd" clip-rule="evenodd" d="M3.44393 21.9226L13.7878 11.7541C14.1932 11.3557 14.843 11.3557 15.2483 11.7541L17.3267 13.7973L5.59809 25.5259L3.44393 23.4083C3.0287 23.0001 3.02869 22.3308 3.44393 21.9226ZM7.8267 27.7167L18.8372 38.5404C21.4406 41.0997 25.5354 41.3392 28.4195 39.101L33.7811 34.9399C35.2755 33.7801 35.4049 31.5688 34.0558 30.2426L31.8607 28.0847C31.2994 27.5975 30.5074 27.4385 29.7866 27.6993L28.7236 24.7606C30.637 24.0685 32.751 24.5593 34.1621 25.9592L34.1592 25.9621L36.2466 28.0141C37.163 28.915 37.7383 30.0201 37.9814 31.1777L41.9729 27.5163L30.5014 16.0448L20.6246 25.754C20.2444 26.1278 20.2444 26.7406 20.6246 27.1143C20.8863 27.3716 21.2725 27.4559 21.6177 27.3311L28.7235 24.7606L29.7866 27.6993L22.6807 30.2697C21.2046 30.8036 19.5532 30.4432 18.4339 29.3429C16.808 27.7446 16.808 25.1238 18.4339 23.5255L22.8283 19.2056L19.5553 15.9881L7.8267 27.7167ZM25.0572 17.0145L17.4391 9.52559C15.8178 7.93186 13.2183 7.93186 11.5971 9.52559L1.2532 19.6941C-0.407728 21.3268 -0.407728 24.004 1.2532 25.6368L16.6465 40.769C20.3656 44.425 26.2153 44.7672 30.3354 41.5697L35.697 37.4086C36.03 37.1502 36.3291 36.8657 36.5939 36.5605L36.5677 36.7151L48.6491 25.6328C50.4071 24.0201 50.4548 21.2634 48.7535 19.5909L38.5159 9.52699C36.8946 7.93326 34.2951 7.93326 32.6739 9.52699L25.0572 17.0145ZM44.2779 25.4019L32.73 13.854L34.8646 11.7555C35.27 11.3571 35.9198 11.3571 36.3251 11.7555L46.5627 21.8195C46.9881 22.2376 46.9762 22.9268 46.5366 23.3299L44.2779 25.4019Z" fill="url(#paint0_linear_100_167)"/>
<defs>
<linearGradient id="paint0_linear_100_167" x1="0.00750351" y1="8.33029" x2="49.9992" y2="8.33029" gradientUnits="userSpaceOnUse">
<stop stop-color="#87A8F3"/>
<stop offset="1" stop-color="#EC7FD3"/>
</linearGradient>
</defs>
</svg>
